<?xml version="1.0" encoding="UTF-8"?>
<svg version="1.1" xmlns="http://www.w3.org/2000/svg" width="2000" height="404">
<path d="M0 0 C0.89619342 -0.00226556 1.79238684 -0.00453111 2.71573764 -0.00686532 C5.69541828 -0.01315601 8.67505286 -0.01237915 11.65473938 -0.0115509 C13.80081236 -0.0145455 15.9468848 -0.01794872 18.09295654 -0.02172852 C23.90723065 -0.03054273 29.72149003 -0.03290556 35.53577018 -0.0335443 C39.1734029 -0.03425634 42.81103191 -0.03639358 46.44866371 -0.03904152 C59.15375124 -0.04828684 71.85882829 -0.05237748 84.56391907 -0.05158997 C96.38299806 -0.05098959 108.20203136 -0.06153566 120.02109879 -0.07733363 C130.18787146 -0.09043591 140.35462924 -0.09577273 150.52141029 -0.09513456 C156.58483317 -0.09488033 162.64821543 -0.09768956 168.71162987 -0.10831261 C174.41867253 -0.11803873 180.1256361 -0.11804195 185.83268166 -0.11079597 C187.91829673 -0.10975569 190.00391684 -0.11207971 192.08952332 -0.11815643 C220.32104727 -0.19503587 245.23210827 4.60987505 266.65986633 24.13371277 C267.36498352 24.75761902 268.07010071 25.38152527 268.79658508 26.02433777 C285.56119611 41.70204867 294.81557119 64.66988052 295.75280035 87.38622606 C295.7902677 89.74929808 295.79804108 92.11048292 295.7935791 94.47384644 C295.79584466 95.37003986 295.79811021 96.26623328 295.80044442 97.18958408 C295.80673511 100.16926472 295.80595825 103.1488993 295.80513 106.12858582 C295.8081246 108.2746588 295.81152782 110.42073124 295.81530762 112.56680298 C295.82412184 118.38107709 295.82648466 124.19533647 295.8271234 130.00961661 C295.82783544 133.64724934 295.82997268 137.28487835 295.83262062 140.92251015 C295.84186594 153.62759767 295.84595658 166.33267472 295.84516907 179.0377655 C295.84456869 190.8568445 295.85511476 202.67587779 295.87091273 214.49494523 C295.88401501 224.6617179 295.88935183 234.82847568 295.88871366 244.99525672 C295.88845944 251.05867961 295.89126866 257.12206187 295.90189171 263.1854763 C295.91161783 268.89251897 295.91162105 274.59948254 295.90437508 280.30652809 C295.90333479 282.39214316 295.90565881 284.47776327 295.91173553 286.56336975 C295.98861497 314.79489371 291.18370405 339.70595471 271.65986633 361.13371277 C271.03596008 361.83882996 270.41205383 362.54394714 269.76924133 363.27043152 C254.09153043 380.03504255 231.12369858 389.28941762 208.40735304 390.22664678 C206.04428103 390.26411414 203.68309618 390.27188752 201.31973267 390.26742554 C199.97544253 390.27082387 199.97544253 390.27082387 198.60399503 390.27429086 C195.62431438 390.28058154 192.6446798 390.27980468 189.66499329 390.27897644 C187.51892031 390.28197104 185.37284786 390.28537426 183.22677612 390.28915405 C177.41250201 390.29796827 171.59824263 390.3003311 165.78396249 390.30096984 C162.14632976 390.30168187 158.50870075 390.30381912 154.87106895 390.30646706 C142.16598143 390.31571238 129.46090438 390.31980301 116.7558136 390.3190155 C104.9367346 390.31841513 93.11770131 390.3289612 81.29863387 390.34475917 C71.1318612 390.35786144 60.96510342 390.36319826 50.79832238 390.36256009 C44.73489949 390.36230587 38.67151723 390.3651151 32.6081028 390.37573814 C26.90106014 390.38546426 21.19409656 390.38546749 15.48705101 390.37822151 C13.40143594 390.37718122 11.31581583 390.37950525 9.23020935 390.38558197 C-19.00131461 390.46246141 -43.91237561 385.65755049 -65.34013367 366.13371277 C-66.39780945 365.19785339 -66.39780945 365.19785339 -67.47685242 364.24308777 C-84.67938712 348.1558451 -93.51068554 325.00949982 -94.43306768 301.79472303 C-94.47016769 299.43304428 -94.47834307 297.0732512 -94.47384644 294.71128845 C-94.47611199 293.81832416 -94.47837755 292.92535986 -94.48071176 292.00533605 C-94.48699198 289.04258091 -94.48622627 286.07987222 -94.48539734 283.11711121 C-94.48839256 280.98074281 -94.49179593 278.84437496 -94.49557495 276.70800781 C-94.50438209 270.92478365 -94.50675168 265.1415743 -94.50739074 259.35834408 C-94.5081031 255.73963455 -94.51024094 252.12092875 -94.51288795 248.50222015 C-94.52213045 235.86196658 -94.52622421 223.22172352 -94.5254364 210.58146667 C-94.52483588 198.82428278 -94.53538551 187.0671448 -94.55118006 175.30997252 C-94.56428233 165.19413468 -94.56961917 155.07831179 -94.56898099 144.96246552 C-94.5687268 138.93035659 -94.57153448 132.89828849 -94.58215904 126.86618805 C-94.59188533 121.18950071 -94.59188828 115.51289287 -94.58464241 109.83620262 C-94.58360219 107.7618746 -94.58592573 105.6875415 -94.59200287 103.61322212 C-94.66920963 75.41691463 -89.83625021 50.53104635 -70.34013367 29.13371277 C-69.40427429 28.07603699 -69.40427429 28.07603699 -68.44950867 26.99699402 C-50.72048529 8.03885768 -25.3993771 -0.04795348 0 0 Z " fill="#4318FD" transform="translate(128.3401336669922,6.8662872314453125)"/>
<path d="M0 0 C0.33 0 0.66 0 1 0 C2.08520078 7.30578818 3.16947968 14.61171279 4.25317383 21.91772461 C4.620484 24.39334065 4.98799077 26.86892754 5.35571289 29.34448242 C7.6152086 44.5567762 9.8458825 59.77240391 12 75 C12.33 75 12.66 75 13 75 C14.15986027 67.23711032 15.31630681 59.47372017 16.46855068 51.70969677 C17.00384568 48.10350012 17.54025881 44.49747762 18.0793457 40.8918457 C18.60079538 37.40388404 19.11915326 33.91547495 19.6354847 30.42675209 C19.92640408 28.46641573 20.22041852 26.50653946 20.51451111 24.54667664 C21.46649842 18.09600378 22.2709458 11.70352748 22.65858459 5.19233704 C23 3 23 3 25 0 C26.28908335 8.9537992 27.57584056 17.90792881 28.85970211 26.86247826 C29.45604389 31.02127435 30.05315954 35.17995615 30.65209961 39.33837891 C31.2310393 43.35814791 31.8078732 47.37821416 32.38330269 51.39848709 C32.60222342 52.92542719 32.82187827 54.45226224 33.04231071 55.97898483 C34.19607419 63.97341844 35.27819578 71.95309176 36 80 C37.08848081 72.7496317 38.17228393 65.49857411 39.25317383 58.24707031 C39.61966675 55.7918397 39.98714363 53.33675572 40.35571289 50.88183594 C42.79739638 34.6128289 45.05058093 18.33565632 47 2 C47.66 2 48.32 2 49 2 C49.20363159 3.5617395 49.20363159 3.5617395 49.41137695 5.1550293 C52.67282424 30.1480301 55.98981789 55.11411812 60 80 C60.18006592 78.60322021 60.18006592 78.60322021 60.36376953 77.17822266 C63.6909672 51.41991383 67.27431727 25.70354497 71 0 C72.95714656 2.93571984 73.28574301 3.79472689 73.60546875 7.109375 C73.69852295 7.98730713 73.79157715 8.86523926 73.88745117 9.76977539 C73.98646729 10.75324951 74.0854834 11.73672363 74.1875 12.75 C75.66488811 26.24096869 77.66797787 39.64400091 79.6875 53.0625 C79.84979095 54.14261353 80.01208191 55.22272705 80.17929077 56.33557129 C81.1147932 62.55776947 82.05526903 68.77919661 83 75 C83.33 75 83.66 75 84 75 C85.15986027 67.23711032 86.31630681 59.47372017 87.46855068 51.70969677 C88.00384568 48.10350012 88.54025881 44.49747762 89.0793457 40.8918457 C89.60079538 37.40388404 90.11915326 33.91547495 90.6354847 30.42675209 C90.92640408 28.46641573 91.22041852 26.50653946 91.51451111 24.54667664 C92.46649842 18.09600378 93.2709458 11.70352748 93.65858459 5.19233704 C94 3 94 3 96 0 C103.61177429 52.85349181 103.61177429 52.85349181 107 79 C109.36808023 64.68908258 111.56650595 50.3582819 113.625 36 C113.72896088 35.27976654 113.83292175 34.55953308 113.94003296 33.81747437 C115.46546325 23.22992971 116.79446787 12.62863642 118 2 C118.66 2 119.32 2 120 2 C122.53547882 18.79134014 125.0365407 35.56946173 126.96923828 52.44287109 C128.04054448 61.67460178 129.45993265 70.83605316 131 80 C132.94416663 66.68045352 134.87522434 53.36281135 136.5 40 C138.12477566 26.63718865 140.05583337 13.31954648 142 0 C143.94459501 2.91689251 144.28302572 3.75433501 144.60546875 7.0390625 C144.69844238 7.90660156 144.79141602 8.77414063 144.88720703 9.66796875 C144.98630371 10.64378906 145.08540039 11.61960937 145.1875 12.625 C146.59276563 25.32180224 148.3426805 37.96481355 150.14297485 50.61102295 C150.46505287 52.87545879 150.78533717 55.14015045 151.10385132 57.40509033 C151.55699762 60.62487433 152.01586801 63.84378839 152.4765625 67.0625 C152.684235 68.54367813 152.684235 68.54367813 152.89610291 70.05477905 C153.02658524 70.95580353 153.15706757 71.856828 153.29150391 72.78515625 C153.40458893 73.57801025 153.51767395 74.37086426 153.63418579 75.18774414 C153.82875308 77.01315814 153.82875308 77.01315814 155 78 C155.07516846 77.38294189 155.15033691 76.76588379 155.2277832 76.13012695 C156.75633131 63.62792056 158.3540178 51.14212404 160.1796875 38.6796875 C160.81789395 34.31359527 161.41743297 29.94312356 162.0078125 25.5703125 C162.2699353 23.65847168 162.2699353 23.65847168 162.53735352 21.70800781 C162.88234523 19.18993722 163.22155625 16.67106657 163.55444336 14.15136719 C163.79239624 12.43288574 163.79239624 12.43288574 164.03515625 10.6796875 C164.1731665 9.65601074 164.31117676 8.63233398 164.45336914 7.57763672 C165 5 165 5 167 2 C167.84794846 4.54384538 168.23545047 6.48058992 168.5078125 9.109375 C168.65222778 10.42627319 168.65222778 10.42627319 168.79956055 11.76977539 C168.90695557 12.75324951 169.01435059 13.73672363 169.125 14.75 C170.66017075 28.23421254 172.67203155 41.64333232 174.6875 55.0625 C174.84970032 56.14261353 175.01190063 57.22272705 175.17901611 58.33557129 C176.11457823 64.55777376 177.05526707 70.77918368 178 77 C180.02121403 64.64985282 181.96902425 52.29678658 183.75390625 39.91015625 C184.06489337 37.76698968 184.37601077 35.62384201 184.68725586 33.48071289 C185.15855855 30.23475977 185.62662318 26.9884988 186.08499146 23.74069214 C186.52007215 20.65925947 186.96605739 17.57957613 187.4140625 14.5 C187.54418228 13.55629044 187.67430206 12.61258087 187.80836487 11.64027405 C187.93557419 10.77929611 188.06278351 9.91831818 188.19384766 9.03125 C188.30169586 8.27392578 188.40954407 7.51660156 188.5206604 6.73632812 C188.67884247 6.16333984 188.83702454 5.59035156 189 5 C189.66 4.67 190.32 4.34 191 4 C191.12306015 4.83858551 191.2461203 5.67717102 191.37290955 6.54116821 C192.53459373 14.45667208 193.69683667 22.37209367 194.85970211 30.28742409 C195.4574748 34.35644738 196.05503389 38.42550181 196.65209961 42.49462891 C197.22865923 46.42394737 197.80578676 50.35318205 198.38330269 54.28236008 C198.60317639 55.77897568 198.8228479 57.275621 199.04231071 58.77229691 C199.35050184 60.87383115 199.65942164 62.97525711 199.96850586 65.07666016 C200.14393417 66.27134918 200.31936249 67.46603821 200.50010681 68.69692993 C200.97027055 71.80356114 201.47448656 74.9023005 202 78 C203.28932874 69.30701526 204.57610323 60.61365726 205.85970211 51.9198246 C206.45593477 47.88207558 207.05301568 43.84445595 207.65209961 39.80712891 C208.23122197 35.90410393 208.80803192 32.00074335 209.38330269 28.0971489 C209.60215074 26.61485222 209.82180363 25.13267411 210.04231071 23.65062332 C211.21235282 15.78294118 212.32682776 7.92860502 213 0 C215.30892155 2.30892155 215.30548603 2.87951602 215.60546875 6.01171875 C215.69844238 6.8927124 215.79141602 7.77370605 215.88720703 8.68139648 C215.98630371 9.67341064 216.08540039 10.6654248 216.1875 11.6875 C217.66319729 25.15453502 219.62981846 38.5394044 221.625 51.9375 C221.78302094 53.00898285 221.94104187 54.0804657 222.10385132 55.18441772 C222.55752081 58.25765606 223.01613424 61.33011154 223.4765625 64.40234375 C223.61501083 65.34088196 223.75345917 66.27942017 223.89610291 67.24639893 C224.0918264 68.53776764 224.0918264 68.53776764 224.29150391 69.85522461 C224.40458893 70.61032822 224.51767395 71.36543182 224.63418579 72.14341736 C224.93100375 74.08356348 224.93100375 74.08356348 226 76 C226.14034416 75.00759811 226.14034416 75.00759811 226.28352356 73.99514771 C227.27075692 67.01738365 228.26111621 60.04006804 229.25317383 53.06298828 C229.62146501 50.46999973 229.98899772 47.87690332 230.35571289 45.28369141 C232.40088281 30.82520503 234.48670981 16.38542213 237 2 C239.08474771 5.52535683 239.57944471 8.8483495 240.14501953 12.87988281 C240.24284729 13.56321686 240.34067505 14.2465509 240.44146729 14.95059204 C240.76189804 17.20055197 241.0723991 19.45176308 241.3828125 21.703125 C241.60354512 23.26691178 241.82489772 24.83061116 242.04684448 26.39422607 C242.62840892 30.50329825 243.20155365 34.61350217 243.77294922 38.72399902 C244.35787223 42.92088245 244.95075558 47.11664021 245.54296875 51.3125 C246.70310353 59.54058622 247.85434526 67.76988519 249 76 C250.72181539 68.88300184 251.82665793 61.75594045 252.8170929 54.5033474 C253.09949571 52.43845688 253.38712244 50.37435246 253.67614746 48.31037903 C254.49611643 42.44923474 255.30792583 36.58697949 256.11376953 30.72387695 C256.60938529 27.12058023 257.11183531 23.51828976 257.6184845 19.9165287 C257.80930971 18.54978324 257.99748011 17.18266431 258.1829071 15.81517601 C258.4417011 13.90739781 258.70990447 12.00090317 258.97851562 10.09448242 C259.12792603 9.01132248 259.27733643 7.92816254 259.43127441 6.81217957 C259.95940593 4.20072564 260.67421095 2.29296763 262 0 C262.13462646 1.03326416 262.26925293 2.06652832 262.40795898 3.13110352 C265.6032526 27.59661575 268.96051185 52.03720902 272.4500618 76.46229172 C272.74850686 78.5520448 273.04640854 80.64187477 273.34420776 82.73171997 C273.90961843 86.6977578 274.47795646 90.66337005 275.046875 94.62890625 C275.2981591 96.38908081 275.2981591 96.38908081 275.55451965 98.18481445 C276.48136621 104.61851691 277.48929724 111.02861881 278.61895752 117.43003845 C279.10073373 120.67940405 279.14892859 123.72357113 279 127 C273.06 127.495 273.06 127.495 267 128 C266.73445313 126.33453125 266.46890625 124.6690625 266.1953125 122.953125 C265.83856301 120.71874659 265.48179096 118.48437179 265.125 116.25 C264.95097656 115.15816406 264.77695312 114.06632812 264.59765625 112.94140625 C264.42363281 111.85214844 264.24960937 110.76289063 264.0703125 109.640625 C263.91320801 108.65610352 263.75610352 107.67158203 263.59423828 106.65722656 C262.74578405 101.43543348 261.87243528 96.21783278 261 91 C260.93105026 91.61036606 260.86210052 92.22073212 260.7910614 92.84959412 C258.83802421 109.98263699 256.43323733 127.0200513 253.8125 144.0625 C253.44039394 146.50189804 253.06864763 148.94135099 252.69726562 151.38085938 C251.80229886 157.25454195 250.90298727 163.12754538 250 169 C248.29421973 165.95812466 247.57598679 163.31670999 247.0703125 159.87451172 C246.83997314 158.34043167 246.83997314 158.34043167 246.60498047 156.77536011 C246.36739014 155.11925217 246.36739014 155.11925217 246.125 153.4296875 C245.95500488 152.27945099 245.78500977 151.12921448 245.60986328 149.94412231 C245.2503273 147.50179915 244.89413416 145.05898192 244.54101562 142.61572266 C244.00891841 138.93666419 243.46635848 135.25927467 242.921875 131.58203125 C241.0349459 118.74398764 239.29608549 105.91182531 238 93 C237.67 93 237.34 93 237 93 C236.93105026 93.61036606 236.86210052 94.22073212 236.7910614 94.84959412 C234.83802421 111.98263699 232.43323733 129.0200513 229.8125 146.0625 C229.44039394 148.50189804 229.06864763 150.94135099 228.69726562 153.38085938 C227.80229886 159.25454195 226.90298727 165.12754538 226 171 C225.67 171 225.34 171 225 171 C223.71079569 162.17660744 222.42402994 153.35286358 221.14029789 144.52867317 C220.54400991 140.43040089 219.94691137 136.33225025 219.34790039 132.234375 C218.76887066 128.27297757 218.19204854 124.3112642 217.61669731 120.3493309 C217.39781241 118.84471269 217.17815851 117.34020612 216.95768929 115.83581924 C215.79608171 107.90594349 214.68145093 99.98824858 214 92 C212.91479922 99.30578818 211.83052032 106.61171279 210.74682617 113.91772461 C210.379516 116.39334065 210.01200923 118.86892754 209.64428711 121.34448242 C209.2870354 123.74971729 208.93011076 126.15500077 208.57351685 128.56033325 C208.22060427 130.93929085 207.86666593 133.3180965 207.51168823 135.69674683 C206.68381252 141.26688899 205.87889309 146.83782447 205.13916016 152.42041016 C205.00697586 153.40249954 204.87479156 154.38458893 204.73860168 155.3964386 C204.49437704 157.22531847 204.25756047 159.055208 204.02934265 160.88615417 C203.75402558 162.93436374 203.3868703 164.96990314 203 167 C202.34 167.33 201.68 167.66 201 168 C199.89357404 160.62140335 198.79136528 153.24218503 197.69189453 145.86254883 C197.31848442 143.3594789 196.94415841 140.85654541 196.56884766 138.35375977 C194.65628699 125.59570509 192.75099429 112.85551682 191.39013672 100.02514648 C191.09334762 96.95956159 191.09334762 96.95956159 190 94 C188.91479922 101.30578818 187.83052032 108.61171279 186.74682617 115.91772461 C186.379516 118.39334065 186.01200923 120.86892754 185.64428711 123.34448242 C183.3847914 138.5567762 181.1541175 153.77240391 179 169 C176.96103565 165.94155348 176.58765787 164.5143928 176.0703125 160.97216797 C175.91675293 159.94614471 175.76319336 158.92012146 175.60498047 157.86300659 C175.36739014 156.19445114 175.36739014 156.19445114 175.125 154.4921875 C174.95500488 153.33816437 174.78500977 152.18414124 174.60986328 150.99514771 C174.25002771 148.54269398 173.89384843 146.08970146 173.54101562 143.63623047 C173.00896323 139.9373139 172.46651016 136.24005127 171.921875 132.54296875 C170.32288204 121.61756318 168.72797816 110.69852198 167.59521484 99.71310425 C167.48275578 96.57777498 167.48275578 96.57777498 166 94 C164.89422167 101.66354029 163.79192409 109.3275758 162.69189453 116.99194336 C162.31832185 119.59198991 161.94399118 122.19192768 161.56884766 124.79174805 C161.02560771 128.55748732 160.48479561 132.32356453 159.9453125 136.08984375 C159.77058411 137.30602386 159.59585571 138.52220398 159.41583252 139.77523804 C158.26546879 147.87189083 157.27633842 155.96798929 156.48779297 164.10766602 C156 167 156 167 154 169 C151.74772589 156.91600067 149.9723704 144.81929736 148.4375 132.625 C148.02303733 129.34589721 147.60555441 126.06720914 147.18359375 122.7890625 C147.08339935 122.00968323 146.98320496 121.23030396 146.87997437 120.42730713 C146.22324392 115.4231541 145.38623204 110.48040152 144.42602539 105.52490234 C143.67029803 101.04597261 143.33275603 96.52723335 143 92 C140.26134231 108.55041222 137.79252305 125.13035647 135.44752502 141.74021912 C135.25014438 143.13616281 135.0517903 144.53196925 134.85240173 145.92762756 C134.36862174 149.32479701 133.9044694 152.72262644 133.47753906 156.12744141 C133.3122168 157.40151855 133.14689453 158.6755957 132.9765625 159.98828125 C132.83557129 161.12434814 132.69458008 162.26041504 132.54931641 163.4309082 C132.36804199 164.2787085 132.18676758 165.12650879 132 166 C131.34 166.33 130.68 166.66 130 167 C127.71783926 154.79890382 125.88970175 142.56560507 124.26513672 130.26049805 C123.87400918 127.30501306 123.47444098 124.35074996 123.07421875 121.39648438 C121.71851415 111.2719197 120.52726204 101.20722421 120 91 C119.34 91 118.68 91 118 91 C117.96261719 91.98355469 117.92523438 92.96710938 117.88671875 93.98046875 C117.52966569 101.96230881 116.84197308 109.81614284 115.65625 117.71875 C115.38554608 119.56728464 115.11496087 121.41583666 114.84448242 123.2644043 C114.70505219 124.20899506 114.56562195 125.15358582 114.42196655 126.12680054 C113.73145671 130.82852982 113.0640004 135.53351849 112.39453125 140.23828125 C112.13097313 142.08400062 111.86730161 143.9297038 111.60351562 145.77539062 C111.47372314 146.68393799 111.34393066 147.59248535 111.21020508 148.52856445 C110.14013672 156.01904297 109.07006836 163.50952148 108 171 C106.00650473 168.00975709 105.6431639 166.80721398 105.19384766 163.37451172 C105.06676422 162.43437225 104.93968079 161.49423279 104.80874634 160.52560425 C104.67850067 159.50395172 104.548255 158.48229919 104.4140625 157.4296875 C104.27100677 156.36122589 104.12795105 155.29276428 103.9805603 154.19192505 C103.52133313 150.75388153 103.07255069 147.31458135 102.625 143.875 C102.03833028 139.41346096 101.44679867 134.95259152 100.8515625 130.4921875 C100.63140472 128.83820953 100.63140472 128.83820953 100.40679932 127.15081787 C98.82111773 115.39941436 96.93869025 103.69767526 95 92 C94.93105026 92.60774765 94.86210052 93.2154953 94.7910614 93.84165955 C92.81215856 111.138017 90.40617321 128.34866979 87.8125 145.5625 C87.4404266 148.05008108 87.06868037 150.53771112 86.69726562 153.02539062 C85.80192672 159.01749356 84.90263225 165.00899159 84 171 C83.67 171 83.34 171 83 171 C81.71067126 162.30701526 80.42389677 153.61365726 79.14029789 144.9198246 C78.54406523 140.88207558 77.94698432 136.84445595 77.34790039 132.80712891 C76.76877803 128.90410393 76.19196808 125.00074335 75.61669731 121.0971489 C75.39784926 119.61485222 75.17819637 118.13267411 74.95768929 116.65062332 C73.78764718 108.78294118 72.67317224 100.92860502 72 93 C69.65941903 105.688303 67.72810222 118.41103324 65.9375 131.1875 C65.67930524 133.01501195 65.42084259 134.84248608 65.16210938 136.66992188 C64.97269272 138.01028 64.97269272 138.01028 64.77944946 139.37771606 C64.53082866 141.13488187 64.28147626 142.89194433 64.03134155 144.64889526 C63.47667493 148.55695543 62.93515086 152.46502479 62.44189453 156.38134766 C62.2767334 157.65413574 62.11157227 158.92692383 61.94140625 160.23828125 C61.80549072 161.33825439 61.6695752 162.43822754 61.52954102 163.5715332 C61.35479248 164.37292725 61.18004395 165.17432129 61 166 C60.34 166.33 59.68 166.66 59 167 C56.76400801 154.97732467 54.97848147 142.94241636 53.4375 130.8125 C53.12367592 128.36826988 52.80870543 125.92419126 52.49307251 123.48019409 C52.28848107 121.89480715 52.08483105 120.3092984 51.88217163 118.72366333 C51.12417716 112.82989184 50.26819139 106.9561667 49.35180664 101.0847168 C48.9658304 97.70039358 48.94199866 94.40336908 49 91 C48.34 91 47.68 91 47 91 C46.96261719 91.98355469 46.92523438 92.96710938 46.88671875 93.98046875 C46.52966569 101.96230881 45.84197308 109.81614284 44.65625 117.71875 C44.38554608 119.56728464 44.11496087 121.41583666 43.84448242 123.2644043 C43.63533707 124.68129044 43.63533707 124.68129044 43.42196655 126.12680054 C42.73145671 130.82852982 42.0640004 135.53351849 41.39453125 140.23828125 C41.13097313 142.08400062 40.86730161 143.9297038 40.60351562 145.77539062 C40.47372314 146.68393799 40.34393066 147.59248535 40.21020508 148.52856445 C38.60510254 159.76428223 38.60510254 159.76428223 37 171 C34.89350767 167.8402615 34.57548502 166.30846747 34.08618164 162.62084961 C33.93584976 161.51797104 33.78551788 160.41509247 33.63063049 159.27879333 C33.47537399 158.08206497 33.32011749 156.88533661 33.16015625 155.65234375 C32.99253281 154.41190811 32.82490936 153.17147247 32.65220642 151.89344788 C32.20567239 148.58184728 31.7655794 145.26952778 31.32904053 141.956604 C30.55367085 136.08300558 29.76322608 130.21141183 28.97265625 124.33984375 C28.80496735 123.0907724 28.63727844 121.84170105 28.46450806 120.55477905 C27.16868043 111.00105079 25.68918356 101.49171763 24 92 C23.93105026 92.60774765 23.86210052 93.2154953 23.7910614 93.84165955 C21.81215856 111.138017 19.40617321 128.34866979 16.8125 145.5625 C16.4404266 148.05008108 16.06868037 150.53771112 15.69726562 153.02539062 C14.80192672 159.01749356 13.90263225 165.00899159 13 171 C12.67 171 12.34 171 12 171 C10.70979887 162.32441499 9.42296463 153.64833894 8.14029789 144.97163677 C7.54445249 140.94170478 6.94749584 136.91194425 6.34790039 132.88256836 C5.7681285 128.98611784 5.19140523 125.08922667 4.61669731 121.19202614 C4.39810717 119.71330862 4.17846205 118.23474661 3.95768929 116.75635338 C2.72864777 108.52102811 1.62300095 100.30683964 1 92 C0.87916046 92.81273376 0.75832092 93.62546753 0.63381958 94.46282959 C-0.51237101 102.17050895 -1.6595779 109.87803607 -2.80788994 117.58539963 C-3.39802906 121.54659772 -3.98779277 125.50785091 -4.57666016 129.46923828 C-5.14633102 133.30138877 -5.7170381 137.13338371 -6.28842545 140.96527863 C-6.50484272 142.4178355 -6.72090391 143.87044548 -6.93658066 145.32311249 C-8.20970836 153.8962701 -9.53903663 162.4565595 -11 171 C-11.33 171 -11.66 171 -12 171 C-14.12402344 156.13183594 -14.12402344 156.13183594 -16.24804688 141.26367188 C-16.40143524 140.19075897 -16.55482361 139.11784607 -16.71286011 138.01242065 C-17.02197843 135.84696214 -17.33018271 133.68137296 -17.63748169 131.51565552 C-18.37042337 126.35775704 -19.1162561 121.20270383 -19.89990234 116.05224609 C-20.04018356 115.11539474 -20.18046478 114.1785434 -20.32499695 113.21330261 C-20.58432685 111.48543532 -20.84911121 109.75837225 -21.1209259 108.03242493 C-21.97003793 102.32390272 -22.13890329 96.76721718 -22 91 C-22.66 91 -23.32 91 -24 91 C-24.0767395 92.28508453 -24.0767395 92.28508453 -24.1550293 93.59613037 C-24.69251046 101.88900033 -25.59087014 110.0479648 -26.8125 118.265625 C-26.98628174 119.46507751 -27.16006348 120.66453003 -27.33911133 121.90032959 C-27.88800898 125.6842604 -28.44355941 129.46717172 -29 133.25 C-29.55543542 137.04724635 -30.10938363 140.84469787 -30.66088867 144.64251709 C-31.0022931 146.99139378 -31.34606006 149.33992877 -31.69262695 151.68804932 C-32.63015218 158.11433449 -33.42356499 164.53099218 -34 171 C-36.4594734 168.5405266 -36.39634735 167.44926914 -36.78125 164.046875 C-36.90113281 163.03367187 -37.02101563 162.02046875 -37.14453125 160.9765625 C-37.26183594 159.91179687 -37.37914063 158.84703125 -37.5 157.75 C-37.7381975 155.68213156 -37.97779505 153.61442394 -38.21875 151.546875 C-38.39488075 150.0313076 -38.39488075 150.0313076 -38.5745697 148.48512268 C-38.98193688 145.14797298 -39.43912644 141.82311029 -39.92016602 138.49584961 C-40.09657623 137.27072662 -40.27298645 136.04560364 -40.45474243 134.78335571 C-40.63467743 133.53484833 -40.81461243 132.28634094 -41 131 C-41.33579896 128.64306956 -41.67100592 126.2860547 -42.00561523 123.92895508 C-42.84570436 118.01649666 -43.68698337 112.10420909 -44.52918911 106.19205189 C-45.03298489 102.65507739 -45.5362547 99.1180297 -46.03833008 95.58081055 C-46.6268472 91.43515961 -47.21716534 87.2897678 -47.80859375 83.14453125 C-47.90368603 82.47717075 -47.99877831 81.80981026 -48.09675217 81.12222672 C-49.3616773 72.25803844 -50.67219801 63.40381718 -52.16563416 54.5749054 C-52.76588604 50.9420354 -53 47.71756764 -53 44 C-46.565 43.505 -46.565 43.505 -40 43 C-38.35 55.21 -36.7 67.42 -35 80 C-33.7671726 72.60303557 -32.61890461 65.30525715 -31.75 57.875 C-30.28392798 45.7243574 -28.55296004 33.61381544 -26.8125 21.5 C-26.6741272 20.53688904 -26.53575439 19.57377808 -26.39318848 18.58148193 C-25.59830012 13.05390888 -24.80035841 7.52678354 -24 2 C-23.34 2 -22.68 2 -22 2 C-21.81993408 3.42034546 -21.81993408 3.42034546 -21.63623047 4.86938477 C-18.48410333 29.64466878 -14.9062273 54.33271066 -11 79 C-5.31345692 39.52576764 -5.31345692 39.52576764 0 0 Z " fill="#FAD705" transform="translate(115,116)"/>
<path d="M0 0 C11.55 0 23.1 0 35 0 C35.33 27.06 35.66 54.12 36 82 C40.62 79.03 45.24 76.06 50 73 C70.04300018 61.7258124 94.64991513 59.39468566 117 64 C132.87975683 68.46939978 145.61859766 77.64659108 154 92 C159.81603034 103.00140678 163.47663644 114.35427258 165.6875 126.5625 C165.80697998 127.22217773 165.92645996 127.88185547 166.04956055 128.56152344 C167.9449463 139.83227492 168.20569121 151.15577113 168.1875 162.5625 C168.18689575 163.26521027 168.1862915 163.96792053 168.18566895 164.69192505 C168.1171634 194.12215638 164.55519269 226.22598807 142.92578125 248.265625 C129.63201578 261.10463861 112.26565422 264.3889867 94.41870117 264.30029297 C72.19472847 263.81406828 52.25201647 257.19270094 35 243 C33.46298119 244.53701881 33.67701275 246.11807163 33.46484375 248.25390625 C33.34677368 249.40741577 33.34677368 249.40741577 33.22631836 250.58422852 C33.1310083 251.56705811 33.03569824 252.5498877 32.9375 253.5625 C32.628125 256.676875 32.31875 259.79125 32 263 C21.44 263 10.88 263 0 263 C0 176.21 0 89.42 0 0 Z M44.234375 105.3046875 C37.67877256 113.21266947 34.86091344 120.51532439 34.82299805 130.63916016 C34.81642685 131.40396698 34.80985565 132.1687738 34.80308533 132.95675659 C34.78340055 135.484193 34.77169843 138.01157002 34.76171875 140.5390625 C34.75764322 141.40551769 34.7535677 142.27197289 34.74936867 143.1646843 C34.72852512 147.75383005 34.71421787 152.34294609 34.70483398 156.93212891 C34.69379324 161.65290666 34.65941557 166.37320999 34.61966228 171.09382057 C34.5934092 174.74002915 34.58513431 178.38612635 34.58155251 182.03242111 C34.57670636 183.77140876 34.56514916 185.5103921 34.54651451 187.24928665 C34.39745799 202.08453189 36.86112266 212.65174676 47 224 C60.67178376 236.45522673 74.78135179 239.88114115 92.68261719 239.17919922 C103.80557426 238.31908012 111.72100372 232.59879034 119.1875 224.8125 C133.03726178 208.41503253 133.21967539 183.77628372 133.1875 163.375 C133.18689575 162.66723419 133.1862915 161.95946838 133.18566895 161.23025513 C133.136933 140.19980374 132.34675332 115.24734024 117.5 98.6875 C107.2276487 89.19004561 95.02746614 86.48385374 81.49609375 86.7265625 C66.36982224 87.37708557 54.50553263 94.60829086 44.234375 105.3046875 Z " fill="#000000" transform="translate(1499,40)"/>
<path d="M0 0 C1.01197952 0.00273422 1.01197952 0.00273422 2.04440308 0.00552368 C24.32779886 0.10654113 47.44478305 3.52885045 64.4375 19.375 C81.72754384 37.85530048 88.75 62.50163308 88.75 87.3125 C77.2 87.3125 65.65 87.3125 53.75 87.3125 C53.1621875 82.3625 53.1621875 82.3625 52.5625 77.3125 C50.5684351 62.14524915 47.5719835 45.21500097 35.0625 34.9375 C20.26362743 25.07158495 3.07090485 23.67733202 -14.0546875 26.6328125 C-25.78625267 29.12827991 -36.17569153 34.26691496 -43.125 44.375 C-62.13770325 77.62448821 -59.54822321 131.5552946 -49.82080078 167.3671875 C-46.09718667 180.05741729 -39.42258381 191.25084061 -27.57421875 197.7890625 C-17.93019796 202.35096445 -9.57919007 203.65682668 1 203.625 C2.05574219 203.64111328 3.11148438 203.65722656 4.19921875 203.67382812 C15.88123697 203.68097746 25.56030825 200.90575471 35.75 195.3125 C36.4615625 195.01472656 37.173125 194.71695313 37.90625 194.41015625 C40.22922185 193.02720055 40.69383281 191.76464468 41.75 189.3125 C42.53635759 188.18378265 43.32831336 187.05895062 44.125 185.9375 C52.67745194 172.45094116 52.03347843 154.359453 52.75 139.3125 C36.58 139.3125 20.41 139.3125 3.75 139.3125 C3.75 132.0525 3.75 124.7925 3.75 117.3125 C31.8 117.3125 59.85 117.3125 88.75 117.3125 C88.75 153.9425 88.75 190.5725 88.75 228.3125 C81.82 228.3125 74.89 228.3125 67.75 228.3125 C67.44255859 225.44111328 67.44255859 225.44111328 67.12890625 222.51171875 C66.85694435 220.00779365 66.58479945 217.50388842 66.3125 215 C66.17779297 213.73736328 66.04308594 212.47472656 65.90429688 211.17382812 C65.77216797 209.96533203 65.64003906 208.75683594 65.50390625 207.51171875 C65.32323608 205.83855591 65.32323608 205.83855591 65.13891602 204.1315918 C64.82795843 201.240358 64.82795843 201.240358 63.75 198.3125 C63.39808594 198.95316406 63.04617188 199.59382812 62.68359375 200.25390625 C54.52056889 214.55518478 43.26251612 221.26280301 27.75 226.3125 C3.30739977 232.82109398 -29.61672308 231.91452504 -52.0078125 219.26953125 C-70.31815187 208.29150941 -80.50955535 191.39477016 -85.66015625 170.9140625 C-86.11611672 168.9657052 -86.5627653 167.01514485 -87 165.0625 C-87.19875732 164.18352051 -87.39751465 163.30454102 -87.60229492 162.39892578 C-90.74196656 147.36672168 -91.58796043 132.15191917 -91.51074219 116.83300781 C-91.50000173 114.3129066 -91.5107345 111.79351776 -91.5234375 109.2734375 C-91.53654814 94.66419659 -90.65513269 79.92916615 -87.5 65.625 C-87.33226074 64.8515625 -87.16452148 64.078125 -86.99169922 63.28125 C-83.16036334 46.54526272 -76.47060383 31.5764393 -64.25 19.3125 C-63.70859375 18.74789062 -63.1671875 18.18328125 -62.609375 17.6015625 C-46.5552047 2.27712721 -20.93762133 -0.09020892 0 0 Z " fill="#000000" transform="translate(590.25,74.6875)"/>
<path d="M0 0 C13.79879045 13.47411303 18.97586895 31.93692881 19.52734566 50.75297928 C19.55985806 54.24083015 19.56125069 57.72734342 19.55102539 61.21533203 C19.55117142 62.53352432 19.55131744 63.85171661 19.5514679 65.20985413 C19.55175266 68.79387234 19.5459081 72.3778565 19.53889394 75.96186686 C19.5326067 79.71878794 19.53205238 83.47570996 19.53086853 87.2326355 C19.52777096 94.33321137 19.51957895 101.43377169 19.50951904 108.53434074 C19.49830881 116.62389662 19.49283512 124.71345327 19.48782361 132.80301499 C19.47739489 149.43118718 19.45906916 166.05933797 19.4375 182.6875 C9.8675 182.6875 0.2975 182.6875 -9.5625 182.6875 C-11.18564637 179.44120726 -11.1849572 175.82190885 -11.5625 172.25 C-12.13966187 166.38800982 -12.13966187 166.38800982 -13.5625 160.6875 C-13.97757813 161.1721875 -14.39265625 161.656875 -14.8203125 162.15625 C-24.70531735 172.90981176 -37.5954195 178.36752223 -51.5625 181.6875 C-52.34359131 181.87368896 -53.12468262 182.05987793 -53.92944336 182.25170898 C-61.47457268 183.83922848 -68.93778185 184.02688035 -76.61254883 184.00317383 C-78.72986219 184.0000299 -80.84575031 184.02350407 -82.96289062 184.04882812 C-101.76046874 184.13619406 -120.15739453 180.64509082 -134.5625 167.6875 C-136.97496516 164.86376219 -138.81869244 161.95997003 -140.5625 158.6875 C-140.93890625 158.02492188 -141.3153125 157.36234375 -141.703125 156.6796875 C-150.33191967 139.7440681 -149.61812154 116.54433684 -144.5625 98.6875 C-140.11046674 86.81541131 -133.05521025 78.280832 -121.921875 72.19140625 C-111.34100818 67.45462285 -99.87957912 65.51727793 -88.33227539 65.57397461 C-87.14568329 65.57375557 -87.14568329 65.57375557 -85.93511963 65.5735321 C-83.34343641 65.57422384 -80.75182678 65.58198137 -78.16015625 65.58984375 C-76.35412129 65.59171056 -74.54808582 65.59313322 -72.74205017 65.59413147 C-68.0057941 65.59793596 -63.26956907 65.60774846 -58.5333252 65.61883545 C-53.69344502 65.62909417 -48.8535598 65.63363862 -44.01367188 65.63867188 C-34.52993434 65.64937269 -25.04621976 65.66642411 -15.5625 65.6875 C-15.69753176 62.51138698 -15.84210796 59.33577447 -15.98828125 56.16015625 C-16.02602661 55.26961548 -16.06377197 54.37907471 -16.10266113 53.46154785 C-16.73825153 39.94672562 -19.03618254 26.6261437 -29.1875 16.8125 C-40.74143287 7.65282318 -56.20244066 5.47898305 -70.5 7 C-80.3279261 8.40398944 -88.15571552 11.02139396 -95.5625 17.6875 C-96.2225 17.6875 -96.8825 17.6875 -97.5625 17.6875 C-97.83320312 18.2546875 -98.10390625 18.821875 -98.3828125 19.40625 C-99.6056028 21.77085112 -100.99756104 23.94925292 -102.4375 26.1875 C-107.22747427 34.10848184 -109.37784737 42.77641692 -111.5625 51.6875 C-115.92279514 50.56784651 -120.28272873 49.44679959 -124.64233398 48.32446289 C-126.1253084 47.94289495 -127.60838068 47.5617072 -129.09155273 47.1809082 C-131.22405461 46.6333257 -133.35620016 46.08437456 -135.48828125 45.53515625 C-136.15088455 45.3653273 -136.81348785 45.19549835 -137.49617004 45.02052307 C-140.21975147 44.31773822 -142.89276628 43.57741124 -145.5625 42.6875 C-144.53910105 25.97198376 -136.58491757 11.68830452 -124.63671875 0.26171875 C-93.94977809 -26.45665538 -30.89372603 -26.1192411 0 0 Z M-105.0625 95.875 C-111.80422337 104.8440774 -113.37640239 116.78120793 -112.5625 127.6875 C-110.99496306 138.66025859 -108.41169133 147.28659033 -99.58984375 154.37109375 C-86.16652566 163.08719817 -67.04156144 162.50950827 -51.875 159.5 C-38.35671382 156.01456236 -24.30437572 149.9146658 -16.5625 137.6875 C-15.53359621 133.49056333 -15.62168575 129.51543117 -15.78125 125.21484375 C-15.79822937 123.46935997 -15.79822937 123.46935997 -15.81555176 121.68861389 C-15.86007031 117.99901497 -15.96039871 114.31340928 -16.0625 110.625 C-16.10265815 108.11268662 -16.13915479 105.60031188 -16.171875 103.08789062 C-16.25972515 96.95308178 -16.39331831 90.8205762 -16.5625 84.6875 C-23.865671 84.64071778 -31.16880857 84.60540173 -38.47210026 84.58387566 C-41.86499975 84.5735331 -45.25779515 84.55955336 -48.65063477 84.53662109 C-78.98483915 82.85791964 -78.98483915 82.85791964 -105.0625 95.875 Z " fill="#000000" transform="translate(1444.5625,120.3125)"/>
<path d="M0 0 C20.88357176 19.93085407 25.53742286 50.4885553 26.21875 77.96875 C26.26611085 83.60469079 26.05746174 88.59272956 25.125 94.1875 C-20.415 94.1875 -65.955 94.1875 -112.875 94.1875 C-112.545 94.8475 -112.215 95.5075 -111.875 96.1875 C-111.64561368 97.67579753 -111.45951877 99.17090675 -111.296875 100.66796875 C-109.19983501 118.66012572 -105.96176701 136.55613248 -92.08203125 149.55859375 C-78.81912234 159.34732475 -64.27276326 161.93492136 -48.078125 159.65234375 C-36.81293537 157.44040201 -27.11402358 153.55742369 -20.3125 143.875 C-14.98798762 134.74222711 -11.75500387 123.5275213 -9.875 113.1875 C0.85047708 115.65554124 11.50891802 118.28237131 22.125 121.1875 C20.00504895 140.52018797 12.3065473 157.64538415 -2.875 170.1875 C-19.19511471 182.0288228 -38.93387427 184.58723516 -58.625 184.5 C-59.94105225 184.49508545 -61.25710449 184.4901709 -62.61303711 184.48510742 C-84.780221 184.21869134 -104.96314762 179.20210998 -121.49609375 163.65234375 C-142.76510825 141.61499046 -147.30214452 108.80283604 -147.02734375 79.4296875 C-146.20721079 51.27404862 -141.25333654 22.02741903 -120.32617188 1.54492188 C-91.03593723 -25.85307688 -30.57300017 -25.57202038 0 0 Z M-94.875 18.1875 C-109.41352877 33.37822445 -110.84375172 51.87501722 -112.875 72.1875 C-78.555 72.1875 -44.235 72.1875 -8.875 72.1875 C-10.98534425 42.10854436 -10.98534425 42.10854436 -26.1875 16.625 C-45.49808698 1.28819027 -76.51729594 0.7495974 -94.875 18.1875 Z " fill="#000000" transform="translate(1916.875,119.8125)"/>
<path d="M0 0 C20.05393554 19.13906622 25.48695876 48.73684838 26.1796875 75.28320312 C26.2953149 81.70630538 26.39117409 87.85662953 25.125 94.1875 C-20.085 94.5175 -65.295 94.8475 -111.875 95.1875 C-109.53492254 116.24819715 -107.14705281 135.46391673 -90.875 150.1875 C-78.19627639 159.61680231 -63.45510607 161.80112134 -48.0625 159.65625 C-36.71731406 157.40677348 -26.93746846 153.52078667 -20.25 143.625 C-15.37644068 135.20849131 -12.56902736 125.91287978 -10.55078125 116.453125 C-10.32777344 115.70546875 -10.10476563 114.9578125 -9.875 114.1875 C-6.73917787 112.61958893 -4.44175146 113.9318746 -1.1171875 114.83984375 C-0.45413605 115.01882706 0.20891541 115.19781036 0.89205933 115.38221741 C3.01325409 115.95646497 5.13158213 116.5406006 7.25 117.125 C8.68602035 117.5156273 10.12221634 117.90560955 11.55859375 118.29492188 C15.08279924 119.25163291 18.60449992 120.21723123 22.125 121.1875 C20.6649939 138.78296073 13.54677131 153.72167985 1.125 166.1875 C0.58359375 166.75210938 0.0421875 167.31671875 -0.515625 167.8984375 C-18.74113149 185.29551188 -46.94569999 184.79314619 -70.31152344 184.32373047 C-90.65996001 183.54581682 -109.78623748 176.13149092 -123.875 161.1875 C-145.27961958 135.08088202 -149.05168762 98.31136097 -146.375 65.71484375 C-144.87129543 50.91192749 -141.95247389 36.79675512 -135.875 23.1875 C-135.21564453 21.70056641 -135.21564453 21.70056641 -134.54296875 20.18359375 C-126.63747938 4.1675735 -112.133201 -7.08955529 -95.51953125 -13.0078125 C-65.2429517 -22.24473507 -25.29512176 -21.15747115 0 0 Z M-92.25 16.5625 C-93.80900102 18.08663518 -95.35255047 19.62685281 -96.875 21.1875 C-97.44992187 21.71859375 -98.02484375 22.2496875 -98.6171875 22.796875 C-110.65982484 34.90190943 -111.6708317 56.53331205 -112.875 72.1875 C-78.555 72.1875 -44.235 72.1875 -8.875 72.1875 C-10.83052674 41.90091252 -10.83052674 41.90091252 -26.1875 16.6875 C-44.63160321 1.81929435 -74.05277393 0.61955716 -92.25 16.5625 Z " fill="#000000" transform="translate(857.875,119.8125)"/>
<path d="M0 0 C17.00339899 14.47154491 22.65137056 37.28541719 24.68299866 58.68725967 C25.38880863 68.79732984 25.1198332 78.97965148 25.07778788 89.10865593 C25.06513096 92.68135678 25.06409841 96.25406242 25.06173706 99.82678223 C25.05556562 106.5659397 25.0392147 113.30503089 25.01903808 120.04415941 C24.99654258 127.72756714 24.98565163 135.41097834 24.97564721 143.0944109 C24.95484365 158.87548532 24.91822295 174.65646863 24.875 190.4375 C13.325 190.4375 1.775 190.4375 -10.125 190.4375 C-10.13958252 186.55814697 -10.15416504 182.67879395 -10.16918945 178.68188477 C-10.21969844 165.81366591 -10.28617515 152.94557014 -10.36071491 140.07746983 C-10.40548991 132.28139672 -10.44494554 124.48536744 -10.47143555 116.68920898 C-10.49456511 109.88616221 -10.52812653 103.08325626 -10.57370156 96.28032154 C-10.59743448 92.68538616 -10.61629254 89.09058851 -10.62261391 85.49557686 C-9.93362171 51.99992077 -9.93362171 51.99992077 -25.015625 23.27734375 C-34.00701384 15.43485459 -45.61883254 14.63994327 -57.04931641 15.24658203 C-68.81178657 16.32847472 -79.45783452 22.92379642 -87 31.75 C-96.02063346 43.53007589 -98.41829059 54.14376644 -98.44384766 68.73828125 C-98.45891609 70.71513161 -98.45891609 70.71513161 -98.47428894 72.73191833 C-98.50145316 76.32429307 -98.51669775 79.91662888 -98.52971697 83.50907898 C-98.54540733 87.27139723 -98.57217855 91.0336367 -98.5977478 94.79589844 C-98.64443147 101.91067007 -98.68122577 109.0254567 -98.71442068 116.14030266 C-98.75271589 124.24437314 -98.80210654 132.3483643 -98.85240483 140.45236778 C-98.95556975 157.11402684 -99.04341564 173.77571917 -99.125 190.4375 C-110.345 190.4375 -121.565 190.4375 -133.125 190.4375 C-133.125 124.7675 -133.125 59.0975 -133.125 -8.5625 C-124.215 -8.5625 -115.305 -8.5625 -106.125 -8.5625 C-104.27602563 -0.55027775 -102.50280533 7.34897224 -101.125 15.4375 C-100.17625 14.6125 -99.2275 13.7875 -98.25 12.9375 C-97.60417969 12.38964844 -96.95835937 11.84179688 -96.29296875 11.27734375 C-94.82612599 10.03250962 -93.37060929 8.77422575 -91.92578125 7.50390625 C-68.44837859 -12.40337898 -25.97853787 -19.31636351 0 0 Z " fill="#000000" transform="translate(1050.125,112.5625)"/>
<path d="M0 0 C21.67079058 -0.47577895 44.93469508 2.39516015 61.5625 17.68359375 C73.47623989 30.51377517 83.46891137 49.21414713 83.5625 66.93359375 C83.500625 67.98546875 83.43875 69.03734375 83.375 70.12109375 C77.13273106 72.50784364 70.83926289 74.69403461 64.5 76.80859375 C63.55125 77.12892578 62.6025 77.44925781 61.625 77.77929688 C60.72007812 78.08158203 59.81515625 78.38386719 58.8828125 78.6953125 C57.65522217 79.10656372 57.65522217 79.10656372 56.40283203 79.52612305 C54.375 80.12109375 54.375 80.12109375 52.375 80.12109375 C52.21644531 78.90035156 52.05789063 77.67960937 51.89453125 76.421875 C49.73325854 60.76500936 46.35571549 45.91056255 33.953125 34.98828125 C22.83306179 26.73456973 10.89359915 25.38126992 -2.625 26.12109375 C-15.4511084 28.03072536 -25.72708495 34.00167291 -34.125 43.88671875 C-49.34957128 65.77203997 -48.37516503 102.69327747 -44.375 127.87109375 C-41.60228544 143.24977482 -36.31210017 158.22850904 -23.625 168.12109375 C-11.40903069 176.09731341 1.87062464 178.82455262 16.27734375 176.00390625 C28.44484553 172.53624496 36.5468137 166.02413965 43.125 155.37109375 C48.81793954 145.0226524 51.06266065 134.79400687 52.375 123.12109375 C62.95879083 125.66994246 73.13992929 129.45572015 83.375 133.12109375 C83.57306004 138.84566795 83.07796245 143.64122353 81.4375 149.12109375 C81.11023926 150.21478271 81.11023926 150.21478271 80.77636719 151.33056641 C74.98385701 169.42923718 63.42371247 185.40135648 46.65234375 194.6171875 C24.10565105 205.54990036 -6.51406243 205.40158588 -30.15234375 198.01953125 C-49.90154019 190.87571457 -62.73556839 179.16837649 -71.92382812 160.42114258 C-80.15530316 142.57284374 -81.98764549 123.57752185 -81.94067383 104.16430664 C-81.93752468 101.45482671 -81.96102551 98.74645454 -81.98632812 96.03710938 C-82.08177537 69.84278854 -77.48164517 40.81210375 -58.625 21.12109375 C-42.66551767 5.54710617 -21.6784991 0.724174 0 0 Z " fill="#000000" transform="translate(1184.625,101.87890625)"/>
<path d="M0 0 C11.55 0 23.1 0 35 0 C35 86.79 35 173.58 35 263 C23.45 263 11.9 263 0 263 C0 176.21 0 89.42 0 0 Z " fill="#000000" transform="translate(1703,40)"/>
<path d="M0 0 C1.9955516 3.99110319 2.19546065 5.69986566 2 10 C1.01 10 0.02 10 -1 10 C-0.67 6.7 -0.34 3.4 0 0 Z " fill="#764DB9" transform="translate(352,205)"/>
<path d="M0 0 C0.33 0 0.66 0 1 0 C1.33 3.3 1.66 6.6 2 10 C1.01 10 0.02 10 -1 10 C-0.67 6.7 -0.34 3.4 0 0 Z " fill="#6A41C9" transform="translate(281,205)"/>
<path d="M0 0 C0.99 0.33 1.98 0.66 3 1 C2.67 3.64 2.34 6.28 2 9 C1.67 9 1.34 9 1 9 C0.67 6.03 0.34 3.06 0 0 Z " fill="#7850B5" transform="translate(268,189)"/>
<path d="M0 0 C0.33 0 0.66 0 1 0 C1.33 3.3 1.66 6.6 2 10 C1.01 9.67 0.02 9.34 -1 9 C-0.67 6.03 -0.34 3.06 0 0 Z " fill="#C49F4E" transform="translate(376,116)"/>
<path d="M0 0 C0.33 0 0.66 0 1 0 C1.33 2.97 1.66 5.94 2 9 C1.01 9 0.02 9 -1 9 C-0.67 6.03 -0.34 3.06 0 0 Z " fill="#CBA546" transform="translate(115,116)"/>
</svg>
